<?xml version="1.0" encoding="utf-8"?>
<!-- Generator: Adobe Illustrator 27.5.0, SVG Export Plug-In . SVG Version: 6.00 Build 0)  -->
<svg version="1.1" xmlns="http://www.w3.org/2000/svg" xmlns:xlink="http://www.w3.org/1999/xlink" x="0px" y="0px"
	 viewBox="0 0 1122 1122" style="enable-background:new 0 0 1122 1122;" xml:space="preserve">
<g id="Bg">
	<rect style="fill:#FFFFFF;" width="1122" height="1122"/>
</g>
<g id="Object">
	<g>
		<path style="fill:#AAD4C8;" d="M464.798,531.849c-8.116,0-15.75-3.155-21.481-8.905l-41.724-41.719H271.838v55.169h578.324
			v-55.169H719.71l-41.735,41.719c-5.742,5.75-13.364,8.905-21.481,8.905c-8.127,0-15.761-3.155-21.497-8.905
			c-11.456-11.464-11.724-29.814-1.029-41.719H487.314c5.029,5.581,7.88,12.652,7.88,20.232c0,8.122-3.163,15.756-8.91,21.486
			C480.559,528.694,472.926,531.849,464.798,531.849z"/>
		<path style="fill:#616E7D;" d="M242.964,452.344c-3.152,3.155-4.964,7.497-4.964,11.955v89.005c0,4.46,1.812,8.818,4.964,11.955
			c3.158,3.158,7.505,4.97,11.966,4.97h36.861l60.653,252.523c2.627,10.853,12.352,18.516,23.524,18.516h375.757
			c11.161,0,20.854-7.61,23.492-18.465l61.302-252.574h30.563c4.455,0,8.813-1.812,11.966-4.97
			c3.141-3.136,4.953-7.494,4.953-11.955v-89.005c0-4.458-1.812-8.8-4.953-11.955c-3.153-3.155-7.511-4.951-11.966-4.951H753.543
			l114.766-114.782c5.742-5.747,8.915-13.376,8.915-21.487c0-8.122-3.174-15.75-8.915-21.487c-5.72-5.752-13.354-8.904-21.481-8.904
			c-8.116,0-15.75,3.152-21.486,8.904L667.575,447.393H453.712L295.957,289.637c-5.742-5.752-13.375-8.904-21.492-8.904
			c-8.117,0-15.74,3.152-21.487,8.885c-5.747,5.755-8.91,13.384-8.91,21.505c0,8.127,3.163,15.756,8.91,21.487L367.75,447.393
			H254.93C250.47,447.393,246.122,449.189,242.964,452.344z M424.71,733.001c0,6.851-5.554,12.394-12.405,12.394
			c-6.851,0-12.405-5.543-12.405-12.394V601.616c0-6.846,5.554-12.416,12.405-12.416c6.852,0,12.405,5.57,12.405,12.416V733.001z
			 M573.411,757.575c0,6.852-5.554,12.4-12.405,12.4c-6.862,0-12.41-5.548-12.41-12.4V601.616c0-6.846,5.548-12.416,12.41-12.416
			c6.852,0,12.405,5.57,12.405,12.416V757.575z M722.106,733.001c0,6.851-5.559,12.394-12.4,12.394
			c-6.851,0-12.416-5.543-12.416-12.394V601.616c0-6.846,5.565-12.416,12.416-12.416c6.841,0,12.4,5.57,12.4,12.416V733.001z
			 M271.838,481.226h129.756l41.724,41.719c5.731,5.75,13.365,8.905,21.481,8.905c8.127,0,15.761-3.155,21.487-8.905
			c5.747-5.731,8.91-13.364,8.91-21.486c0-7.58-2.852-14.652-7.88-20.232h146.653c-10.695,11.904-10.427,30.255,1.029,41.719
			c5.737,5.75,13.37,8.905,21.497,8.905c8.117,0,15.74-3.155,21.481-8.905l41.735-41.719h130.452v55.169H271.838V481.226z"/>
		<path style="fill:#82BFAB;" d="M548.595,601.616v155.959c0,6.852,5.548,12.4,12.41,12.4c6.852,0,12.405-5.548,12.405-12.4V601.616
			c0-6.846-5.554-12.416-12.405-12.416C554.143,589.2,548.595,594.77,548.595,601.616z"/>
		<path style="fill:#82BFAB;" d="M399.9,601.616v131.385c0,6.851,5.554,12.394,12.405,12.394c6.852,0,12.405-5.543,12.405-12.394
			V601.616c0-6.846-5.554-12.416-12.405-12.416C405.453,589.2,399.9,594.77,399.9,601.616z"/>
		<path style="fill:#82BFAB;" d="M697.29,601.616v131.385c0,6.851,5.565,12.394,12.416,12.394c6.841,0,12.4-5.543,12.4-12.394
			V601.616c0-6.846-5.559-12.416-12.4-12.416C702.855,589.2,697.29,594.77,697.29,601.616z"/>
	</g>
</g>
</svg>
